<svg xmlns="http://www.w3.org/2000/svg" viewBox="0 0 1600 600" width="1600" height="600" font-family="Manrope, system-ui, sans-serif">
<defs><linearGradient id="g" x1="0" y1="0" x2="1" y2="1"><stop offset="0" stop-color="#0A0A0C"/><stop offset="1" stop-color="#4a0d22"/></linearGradient></defs>
<rect width="1600" height="600" fill="url(#g)"/>
<g fill="none" stroke="#FFFFFF" stroke-linecap="round" stroke-linejoin="round">
<rect x="40" y="150" width="190" height="140" rx="14" stroke-opacity="0.3" stroke-width="2" stroke-dasharray="8 7"/>
<path d="M60 182 H210 M60 212 H170 M60 236 H190 M60 260 H150" stroke-opacity="0.25" stroke-width="2"/>
<rect x="50" y="300" width="190" height="140" rx="14" stroke-opacity="0.75" stroke-width="2"/>
<path d="M70 332 H220" stroke-opacity="0.75" stroke-width="2"/>
<path d="M70 362 H170 M70 388 H200" stroke-opacity="0.4" stroke-width="2"/>
<path d="M120 292 q-10 -4 -14 -14" stroke-opacity="0.5" stroke-width="2"/>
</g>
<circle cx="214" cy="410" r="12" fill="#E2225F"/>
<path d="M1345 500 H1560" stroke="#FFFFFF" stroke-opacity="0.3" stroke-width="2"/>
<path d="M1340 500 L1340 470 L1390 470 L1390 420 L1440 420 L1440 340 L1490 340 L1490 200 L1560 200" fill="none" stroke="#FFFFFF" stroke-width="3" stroke-linejoin="round"/>
<circle cx="1340" cy="470" r="7" fill="#E2225F"/>
<circle cx="1390" cy="420" r="7" fill="#E2225F"/>
<circle cx="1440" cy="340" r="7" fill="#E2225F"/>
<circle cx="1490" cy="200" r="7" fill="#E2225F"/>
<path d="M1500 230 q30 50 -2 100" fill="none" stroke="#FFFFFF" stroke-opacity="0.55" stroke-width="2" stroke-dasharray="6 6"/>
<path d="M1450 360 q24 30 0 58" fill="none" stroke="#FFFFFF" stroke-opacity="0.55" stroke-width="2" stroke-dasharray="6 6"/>
<text x="320" y="118" font-size="36" font-weight="800" fill="#E2225F" letter-spacing="2">SAAS UX DESIGN GUIDE</text>
<text x="320" y="222" font-size="80" font-weight="800" fill="#FFFFFF">SaaS product</text>
<text x="320" y="312" font-size="80" font-weight="800" fill="#FFFFFF">redesign without</text>
<text x="320" y="402" font-size="80" font-weight="800" fill="#FFFFFF">a churn spike</text>
<text x="320" y="484" font-size="40" font-weight="700" fill="#FFFFFF" fill-opacity="0.82">Scope, test and roll out behind gates</text>
</svg>
