<svg xmlns="http://www.w3.org/2000/svg" viewBox="0 0 800 1116" width="800" height="1116" font-family="Manrope, system-ui, sans-serif">
<rect width="800" height="1116" fill="#FBFAFB"/>
<text x="48" y="80" font-size="38" font-weight="800" fill="#020101">UX research agency scorecard</text>
<text x="48" y="124" font-size="28" font-weight="600" fill="#6B6B70">Score each agency from 1 to 5</text>
<rect x="40.5" y="160.5" width="719" height="831" rx="24" fill="#FFFFFF" stroke="#E8E8EB"/>
<path d="M41 256 V184 a23 23 0 0 1 23 -23 H736 a23 23 0 0 1 23 23 V256 Z" fill="#FFE3EC"/>
<text x="68" y="218" font-size="26" font-weight="800" fill="#020101">Criterion</text>
<text x="496" y="218" font-size="26" font-weight="800" fill="#020101" text-anchor="middle">Weight</text>
<text x="652" y="202" font-size="26" font-weight="800" fill="#020101" text-anchor="middle">Agency</text>
<text x="584" y="240" font-size="26" font-weight="800" fill="#E2225F" text-anchor="middle">A</text>
<text x="652" y="240" font-size="26" font-weight="800" fill="#E2225F" text-anchor="middle">B</text>
<text x="720" y="240" font-size="26" font-weight="800" fill="#E2225F" text-anchor="middle">C</text>
<text x="68" y="312" font-size="28" font-weight="700" fill="#020101">Dedicated researchers</text>
<text x="496" y="313" font-size="30" font-weight="800" fill="#E2225F" text-anchor="middle">15%</text>
<rect x="556" y="278" width="56" height="48" rx="10" fill="#FFFFFF" stroke="#E8E8EB" stroke-width="2"/>
<rect x="624" y="278" width="56" height="48" rx="10" fill="#FFFFFF" stroke="#E8E8EB" stroke-width="2"/>
<rect x="692" y="278" width="56" height="48" rx="10" fill="#FFFFFF" stroke="#E8E8EB" stroke-width="2"/>
<path d="M41 348 H759" stroke="#E8E8EB"/>
<text x="68" y="404" font-size="28" font-weight="700" fill="#020101">Method fit</text>
<text x="496" y="405" font-size="30" font-weight="800" fill="#E2225F" text-anchor="middle">20%</text>
<rect x="556" y="370" width="56" height="48" rx="10" fill="#FFFFFF" stroke="#E8E8EB" stroke-width="2"/>
<rect x="624" y="370" width="56" height="48" rx="10" fill="#FFFFFF" stroke="#E8E8EB" stroke-width="2"/>
<rect x="692" y="370" width="56" height="48" rx="10" fill="#FFFFFF" stroke="#E8E8EB" stroke-width="2"/>
<path d="M41 440 H759" stroke="#E8E8EB"/>
<text x="68" y="496" font-size="28" font-weight="700" fill="#020101">Recruitment ownership</text>
<text x="496" y="497" font-size="30" font-weight="800" fill="#E2225F" text-anchor="middle">15%</text>
<rect x="556" y="462" width="56" height="48" rx="10" fill="#FFFFFF" stroke="#E8E8EB" stroke-width="2"/>
<rect x="624" y="462" width="56" height="48" rx="10" fill="#FFFFFF" stroke="#E8E8EB" stroke-width="2"/>
<rect x="692" y="462" width="56" height="48" rx="10" fill="#FFFFFF" stroke="#E8E8EB" stroke-width="2"/>
<path d="M41 532 H759" stroke="#E8E8EB"/>
<text x="68" y="588" font-size="28" font-weight="700" fill="#020101">Synthesis rigor</text>
<text x="496" y="589" font-size="30" font-weight="800" fill="#E2225F" text-anchor="middle">15%</text>
<rect x="556" y="554" width="56" height="48" rx="10" fill="#FFFFFF" stroke="#E8E8EB" stroke-width="2"/>
<rect x="624" y="554" width="56" height="48" rx="10" fill="#FFFFFF" stroke="#E8E8EB" stroke-width="2"/>
<rect x="692" y="554" width="56" height="48" rx="10" fill="#FFFFFF" stroke="#E8E8EB" stroke-width="2"/>
<path d="M41 624 H759" stroke="#E8E8EB"/>
<text x="68" y="680" font-size="28" font-weight="700" fill="#020101">Readout quality</text>
<text x="496" y="681" font-size="30" font-weight="800" fill="#E2225F" text-anchor="middle">10%</text>
<rect x="556" y="646" width="56" height="48" rx="10" fill="#FFFFFF" stroke="#E8E8EB" stroke-width="2"/>
<rect x="624" y="646" width="56" height="48" rx="10" fill="#FFFFFF" stroke="#E8E8EB" stroke-width="2"/>
<rect x="692" y="646" width="56" height="48" rx="10" fill="#FFFFFF" stroke="#E8E8EB" stroke-width="2"/>
<path d="M41 716 H759" stroke="#E8E8EB"/>
<text x="68" y="772" font-size="28" font-weight="700" fill="#020101">Data ethics</text>
<text x="496" y="773" font-size="30" font-weight="800" fill="#E2225F" text-anchor="middle">10%</text>
<rect x="556" y="738" width="56" height="48" rx="10" fill="#FFFFFF" stroke="#E8E8EB" stroke-width="2"/>
<rect x="624" y="738" width="56" height="48" rx="10" fill="#FFFFFF" stroke="#E8E8EB" stroke-width="2"/>
<rect x="692" y="738" width="56" height="48" rx="10" fill="#FFFFFF" stroke="#E8E8EB" stroke-width="2"/>
<path d="M41 808 H759" stroke="#E8E8EB"/>
<text x="68" y="864" font-size="28" font-weight="700" fill="#020101">Domain experience</text>
<text x="496" y="865" font-size="30" font-weight="800" fill="#E2225F" text-anchor="middle">15%</text>
<rect x="556" y="830" width="56" height="48" rx="10" fill="#FFFFFF" stroke="#E8E8EB" stroke-width="2"/>
<rect x="624" y="830" width="56" height="48" rx="10" fill="#FFFFFF" stroke="#E8E8EB" stroke-width="2"/>
<rect x="692" y="830" width="56" height="48" rx="10" fill="#FFFFFF" stroke="#E8E8EB" stroke-width="2"/>
<path d="M41 900 H759 V968 a23 23 0 0 1 -23 23 H64 a23 23 0 0 1 -23 -23 Z" fill="#FFE3EC"/>
<text x="68" y="956" font-size="28" font-weight="800" fill="#020101">Weighted total</text>
<text x="496" y="957" font-size="30" font-weight="800" fill="#E2225F" text-anchor="middle">100%</text>
<rect x="556" y="922" width="56" height="48" rx="10" fill="#FFFFFF" stroke="#E2225F" stroke-width="2"/>
<rect x="624" y="922" width="56" height="48" rx="10" fill="#FFFFFF" stroke="#E2225F" stroke-width="2"/>
<rect x="692" y="922" width="56" height="48" rx="10" fill="#FFFFFF" stroke="#E2225F" stroke-width="2"/>
<text x="48" y="1044" font-size="26" font-weight="600" fill="#6B6B70">The weights are our suggestion;</text>
<text x="48" y="1080" font-size="26" font-weight="600" fill="#6B6B70">adjust them to your decision.</text>
</svg>
