<svg xmlns="http://www.w3.org/2000/svg" viewBox="0 0 1600 600" width="1600" height="600" font-family="Manrope, system-ui, sans-serif">
<defs><linearGradient id="g" x1="0" y1="0" x2="1" y2="1"><stop offset="0" stop-color="#0A0A0C"/><stop offset="1" stop-color="#4a0d22"/></linearGradient></defs>
<rect width="1600" height="600" fill="url(#g)"/>
<text x="100" y="150" font-size="20" font-weight="700" fill="#E2225F" letter-spacing="3">UX RESEARCH SERVICES GUIDE</text>
<text x="100" y="260" font-size="84" font-weight="800" fill="#FFFFFF">How to choose a</text>
<text x="100" y="360" font-size="84" font-weight="800" fill="#FFFFFF">UX research agency</text>
<text x="100" y="430" font-size="32" font-weight="600" fill="#FFFFFF" fill-opacity="0.75">A buyer’s scorecard</text>
<g opacity="0.9"><rect x="1170" y="110" width="290" height="380" rx="22" fill="none" stroke="#FFFFFF" stroke-width="2" stroke-linecap="round" stroke-linejoin="round"/>
<rect x="1255" y="92" width="120" height="40" rx="12" fill="none" stroke="#FFFFFF" stroke-width="2" stroke-linecap="round" stroke-linejoin="round"/>
<rect x="1205" y="180" width="26" height="26" rx="6" fill="none" stroke="#FFFFFF" stroke-width="2" stroke-linecap="round" stroke-linejoin="round"/>
<path d="M1211 193 l5 6 l10 -12" fill="none" stroke="#E2225F" stroke-width="2.5" stroke-linecap="round" stroke-linejoin="round"/>
<line x1="1250" y1="189" x2="1420" y2="189" fill="none" stroke="#FFFFFF" stroke-width="2" stroke-linecap="round" stroke-linejoin="round" stroke-opacity="0.8"/>
<line x1="1250" y1="201" x2="1360" y2="201" fill="none" stroke="#FFFFFF" stroke-width="2" stroke-linecap="round" stroke-linejoin="round" stroke-opacity="0.4"/>
<rect x="1205" y="238" width="26" height="26" rx="6" fill="none" stroke="#FFFFFF" stroke-width="2" stroke-linecap="round" stroke-linejoin="round"/>
<path d="M1211 251 l5 6 l10 -12" fill="none" stroke="#E2225F" stroke-width="2.5" stroke-linecap="round" stroke-linejoin="round"/>
<line x1="1250" y1="247" x2="1380" y2="247" fill="none" stroke="#FFFFFF" stroke-width="2" stroke-linecap="round" stroke-linejoin="round" stroke-opacity="0.8"/>
<line x1="1250" y1="259" x2="1340" y2="259" fill="none" stroke="#FFFFFF" stroke-width="2" stroke-linecap="round" stroke-linejoin="round" stroke-opacity="0.4"/>
<rect x="1205" y="296" width="26" height="26" rx="6" fill="none" stroke="#FFFFFF" stroke-width="2" stroke-linecap="round" stroke-linejoin="round"/>
<path d="M1211 309 l5 6 l10 -12" fill="none" stroke="#E2225F" stroke-width="2.5" stroke-linecap="round" stroke-linejoin="round"/>
<line x1="1250" y1="305" x2="1420" y2="305" fill="none" stroke="#FFFFFF" stroke-width="2" stroke-linecap="round" stroke-linejoin="round" stroke-opacity="0.8"/>
<line x1="1250" y1="317" x2="1320" y2="317" fill="none" stroke="#FFFFFF" stroke-width="2" stroke-linecap="round" stroke-linejoin="round" stroke-opacity="0.4"/>
<rect x="1205" y="354" width="26" height="26" rx="6" fill="none" stroke="#FFFFFF" stroke-width="2" stroke-linecap="round" stroke-linejoin="round"/>
<line x1="1250" y1="363" x2="1380" y2="363" fill="none" stroke="#FFFFFF" stroke-width="2" stroke-linecap="round" stroke-linejoin="round" stroke-opacity="0.8"/>
<line x1="1250" y1="375" x2="1360" y2="375" fill="none" stroke="#FFFFFF" stroke-width="2" stroke-linecap="round" stroke-linejoin="round" stroke-opacity="0.4"/>
<rect x="1205" y="412" width="26" height="26" rx="6" fill="none" stroke="#FFFFFF" stroke-width="2" stroke-linecap="round" stroke-linejoin="round"/>
<line x1="1250" y1="421" x2="1420" y2="421" fill="none" stroke="#FFFFFF" stroke-width="2" stroke-linecap="round" stroke-linejoin="round" stroke-opacity="0.8"/>
<line x1="1250" y1="433" x2="1340" y2="433" fill="none" stroke="#FFFFFF" stroke-width="2" stroke-linecap="round" stroke-linejoin="round" stroke-opacity="0.4"/>
</g>
<circle cx="1440" cy="440" r="58" fill="#2e0b17" stroke="#FFFFFF" stroke-width="3" stroke-linecap="round" stroke-linejoin="round"/><line x1="1481" y1="481" x2="1530" y2="530" fill="none" stroke="#FFFFFF" stroke-width="6" stroke-linecap="round" stroke-linejoin="round"/>
<path d="M1408 440 q32 -28 64 0 q-32 28 -64 0 z" fill="none" stroke="#FFFFFF" stroke-width="2" stroke-linecap="round" stroke-linejoin="round"/><circle cx="1440" cy="440" r="8" fill="#E2225F"/>
<path d="M100 500 H900" stroke="#FFFFFF" stroke-opacity="0.25"/><circle cx="100" cy="500" r="4" fill="#E2225F"/><circle cx="500" cy="500" r="4" fill="#FFFFFF" fill-opacity="0.5"/><circle cx="900" cy="500" r="4" fill="#FFFFFF" fill-opacity="0.5"/>
</svg>